<?xml version="1.0" encoding="UTF-8" standalone="no"?>
<!DOCTYPE svg PUBLIC "-//W3C//DTD SVG 1.1//EN" "http://www.w3.org/Graphics/SVG/1.1/DTD/svg11.dtd">
<svg 
    width="100%" 
    height="100%" 
    viewBox="0 0 16 16" 
    version="1.1" 
    xmlns="http://www.w3.org/2000/svg" 
    xmlns:xlink="http://www.w3.org/1999/xlink" 
    xml:space="preserve" 
    xmlns:serif="http://www.serif.com/" 
    style="fill-rule:evenodd;clip-rule:evenodd;stroke-linejoin:round;stroke-miterlimit:2;">
    <g id="Pointer-Template-Tool" >
        <rect id="icon-canvas" x="0" y="0" width="16" height="16" style="fill:none;"/>
        <path id="template-radius" d="m4.5 1c-1.927 0-3.5 1.573-3.5 3.5s1.573 3.5 3.5 3.5c0.16984 0 0.33649-0.013504 0.5-0.037109v-1.0137c-0.16141 0.032415-0.32866 0.050781-0.5 0.050781-1.3866 0-2.5-1.1134-2.5-2.5s1.1134-2.5 2.5-2.5 2.5 1.1134 2.5 2.5c0 0.17134-0.018367 0.33859-0.050781 0.5h1.0137c0.023606-0.16351 0.037109-0.33016 0.037109-0.5 0-1.927-1.573-3.5-3.5-3.5z" style="fill:rgb(219,88,96);"/>
        <path id="template-vertex" transform="rotate(90)" d="m3-4h1v1h1v-1h1v-1h-1v-1h-1v1h-1v1z" style="fill:rgb(219,88,96);"/>
        <path id="pointer" d="m7.9425 9.3145-0.0013 3.6853-1.9412 1.7e-4 5.1e-4 -6.9995 6.9995-5.1e-4 -1.7e-4 1.9412-3.6853 1e-3 5.3725 5.3718-1.372 1.372z" style="fill:rgb(110,110,110);"/>
    </g>
</svg>
